<svg xmlns="http://www.w3.org/2000/svg" xmlns:xlink="http://www.w3.org/1999/xlink" viewBox="0 0 1919 1080"><defs><style>.cls-1{isolation:isolate;}.cls-2{fill:url(#linear-gradient);}.cls-3,.cls-5{mix-blend-mode:overlay;}.cls-3{fill:url(#linear-gradient-2);}.cls-4{fill:url(#linear-gradient-3);}.cls-5{fill:url(#linear-gradient-4);}.cls-6{fill:url(#linear-gradient-5);}.cls-7{fill:url(#linear-gradient-6);}.cls-8{fill:url(#linear-gradient-7);}.cls-9{fill:url(#linear-gradient-8);}.cls-10{fill:url(#linear-gradient-9);}.cls-11{fill:url(#linear-gradient-10);}.cls-12{fill:url(#linear-gradient-11);}.cls-13{fill:url(#linear-gradient-12);}.cls-14{fill:url(#linear-gradient-13);}.cls-15{fill:url(#linear-gradient-14);}.cls-16{fill:url(#linear-gradient-15);}.cls-17{fill:url(#linear-gradient-16);}.cls-18{fill:url(#linear-gradient-17);}.cls-19{fill:url(#linear-gradient-18);}.cls-20{fill:url(#linear-gradient-19);}.cls-21{fill:url(#linear-gradient-20);}.cls-22{fill:url(#linear-gradient-21);}.cls-23{fill:url(#linear-gradient-22);}.cls-24{fill:url(#linear-gradient-23);}.cls-25{fill:url(#linear-gradient-24);}.cls-26{fill:url(#linear-gradient-25);}.cls-27{fill:url(#linear-gradient-26);}.cls-28{fill:url(#linear-gradient-27);}.cls-29{fill:url(#linear-gradient-28);}.cls-30{fill:url(#linear-gradient-29);}.cls-31{fill:url(#linear-gradient-30);}.cls-32{fill:url(#linear-gradient-31);}.cls-33{fill:url(#linear-gradient-32);}.cls-34{fill:url(#linear-gradient-33);}.cls-35{fill:url(#linear-gradient-34);}.cls-36{fill:url(#linear-gradient-35);}.cls-37{fill:url(#linear-gradient-36);}.cls-38{fill:url(#linear-gradient-37);}.cls-39{fill:url(#linear-gradient-38);}.cls-40{fill:#1f2a51;}.cls-41{fill:url(#linear-gradient-39);}.cls-42{fill:url(#linear-gradient-40);}.cls-43,.cls-58{fill:none;}.cls-43{stroke:#1f2a51;stroke-linecap:round;stroke-linejoin:round;stroke-width:0.53px;}.cls-44{fill:url(#linear-gradient-41);}.cls-45{fill:url(#linear-gradient-42);}.cls-46{fill:url(#linear-gradient-43);}.cls-47{fill:url(#linear-gradient-44);}.cls-48{fill:url(#linear-gradient-45);}.cls-49{fill:url(#linear-gradient-46);}.cls-50{fill:url(#linear-gradient-47);}.cls-51{fill:url(#linear-gradient-48);}.cls-52{fill:#4f1d3e;}.cls-53{fill:#791d3e;}.cls-54{fill:#651d3e;}.cls-55{fill:url(#linear-gradient-49);}.cls-56{fill:url(#linear-gradient-50);}.cls-57{fill:url(#linear-gradient-51);}.cls-59{fill:#e1e1e1;}</style><linearGradient id="linear-gradient" x1="478.1" y1="1267.12" x2="468.4" y2="165.06" gradientUnits="userSpaceOnUse"><stop offset="0" stop-color="#1d2c43"/><stop offset="1" stop-color="#104f75"/></linearGradient><linearGradient id="linear-gradient-2" x1="154.91" y1="-127.05" x2="236.06" y2="705.9" gradientUnits="userSpaceOnUse"><stop offset="0" stop-color="#fff"/><stop offset="1" stop-color="#fff" stop-opacity="0"/></linearGradient><linearGradient id="linear-gradient-3" x1="1452.75" y1="1258.4" x2="1443.05" y2="156.82" xlink:href="#linear-gradient"/><linearGradient id="linear-gradient-4" x1="1624.62" y1="-219.88" x2="1716.53" y2="723.56" xlink:href="#linear-gradient-2"/><linearGradient id="linear-gradient-5" x1="2666.01" y1="753.44" x2="2669.79" y2="814.09" gradientTransform="matrix(1, 0, 0, -1, -2629.31, 1568.61)" gradientUnits="userSpaceOnUse"><stop offset="0" stop-color="#564360"/><stop offset="1" stop-color="#3a3450"/></linearGradient><linearGradient id="linear-gradient-6" x1="65.16" y1="893.89" x2="50.06" y2="657.55" xlink:href="#linear-gradient"/><linearGradient id="linear-gradient-7" x1="2554.62" y1="798.52" x2="2558.4" y2="859.17" gradientTransform="matrix(1, 0, 0, -1, -2406.53, 1658.77)" xlink:href="#linear-gradient-5"/><linearGradient id="linear-gradient-8" x1="159.65" y1="940.06" x2="144.54" y2="703.72" xlink:href="#linear-gradient"/><linearGradient id="linear-gradient-9" x1="918.64" y1="798.52" x2="922.42" y2="859.17" gradientTransform="matrix(1, 0, 0, -1, 865.44, 1658.77)" xlink:href="#linear-gradient-5"/><linearGradient id="linear-gradient-10" x1="1795.63" y1="940.06" x2="1780.53" y2="703.72" xlink:href="#linear-gradient"/><linearGradient id="linear-gradient-11" x1="1420.65" y1="731.21" x2="1424.42" y2="791.86" gradientTransform="translate(-889.98)" xlink:href="#linear-gradient-5"/><linearGradient id="linear-gradient-12" x1="546.85" y1="929.72" x2="531.75" y2="693.37" xlink:href="#linear-gradient"/><linearGradient id="linear-gradient-13" x1="1544.42" y1="718.29" x2="1549.75" y2="803.89" gradientTransform="matrix(1, 0, 0, -1, -1276.69, 1523.7)" xlink:href="#linear-gradient-5"/><linearGradient id="linear-gradient-14" x1="1536.49" y1="198.95" x2="1548.93" y2="790.76" gradientTransform="matrix(-1, 0, 0, 1, 1817.58, 0)" gradientUnits="userSpaceOnUse"><stop offset="0" stop-color="#57b8ce"/><stop offset="1" stop-color="#3b5e79"/></linearGradient><linearGradient id="linear-gradient-15" x1="1098.58" y1="756.27" x2="1103.92" y2="841.87" gradientTransform="matrix(1, 0, 0, -1, -385.01, 1599.66)" xlink:href="#linear-gradient-5"/><linearGradient id="linear-gradient-16" x1="1090.65" y1="236.92" x2="1103.09" y2="828.73" xlink:href="#linear-gradient-14"/><linearGradient id="linear-gradient-17" x1="-7.03" y1="537.76" x2="104.85" y2="896.49" gradientTransform="matrix(1, 0, 0, 1, 0, 0)" xlink:href="#linear-gradient-14"/><linearGradient id="linear-gradient-18" x1="1090.15" y1="811.33" x2="1152.78" y2="1012.15" gradientTransform="matrix(-0.56, 0.83, 0.83, 0.56, 701.11, -661.64)" xlink:href="#linear-gradient-14"/><linearGradient id="linear-gradient-19" x1="1570.41" y1="767.99" x2="1574.19" y2="828.64" gradientTransform="matrix(1, 0, 0, 1, 0, 0)" xlink:href="#linear-gradient-5"/><linearGradient id="linear-gradient-20" x1="1519.82" y1="441.38" x2="1559.79" y2="678.55" gradientTransform="matrix(1, 0, 0, 1, 0, 0)" xlink:href="#linear-gradient-14"/><linearGradient id="linear-gradient-21" x1="1284.16" y1="731.21" x2="1287.94" y2="791.86" gradientTransform="matrix(1, 0, 0, -1, 134.39, 1524.15)" xlink:href="#linear-gradient-5"/><linearGradient id="linear-gradient-22" x1="1430.11" y1="872.75" x2="1415" y2="636.41" xlink:href="#linear-gradient"/><linearGradient id="linear-gradient-23" x1="822.27" y1="753.44" x2="826.05" y2="814.09" gradientTransform="matrix(1, 0, 0, -1, 1058.18, 1568.61)" xlink:href="#linear-gradient-5"/><linearGradient id="linear-gradient-24" x1="1877.99" y1="893.79" x2="1862.98" y2="658.88" xlink:href="#linear-gradient"/><linearGradient id="linear-gradient-25" x1="1679.91" y1="718.29" x2="1685.24" y2="803.89" gradientTransform="matrix(1, 0, 0, 1, 0, 0)" xlink:href="#linear-gradient-5"/><linearGradient id="linear-gradient-26" x1="1672.97" y1="198.95" x2="1685.41" y2="790.76" gradientTransform="matrix(1, 0, 0, 1, 0, 0)" xlink:href="#linear-gradient-14"/><linearGradient id="linear-gradient-27" x1="1234.07" y1="756.27" x2="1239.4" y2="841.87" gradientTransform="matrix(1, 0, 0, 1, 0, 0)" xlink:href="#linear-gradient-5"/><linearGradient id="linear-gradient-28" x1="1227.13" y1="236.92" x2="1239.57" y2="828.73" gradientTransform="matrix(1, 0, 0, 1, 0, 0)" xlink:href="#linear-gradient-14"/><linearGradient id="linear-gradient-29" x1="1773.67" y1="548.75" x2="1885.55" y2="907.48" gradientTransform="matrix(1, 0, 0, 1, 0, 0)" xlink:href="#linear-gradient-14"/><linearGradient id="linear-gradient-30" x1="1166.11" y1="697.93" x2="1228.74" y2="898.75" gradientTransform="translate(1116.47 -661.64) rotate(56.18)" xlink:href="#linear-gradient-14"/><linearGradient id="linear-gradient-31" x1="950.63" y1="651.89" x2="973.3" y2="1409.25" gradientTransform="matrix(1, 0, 0, 1, 0, 0)" xlink:href="#linear-gradient-14"/><linearGradient id="linear-gradient-32" x1="1460.51" y1="767.98" x2="1464.29" y2="828.65" gradientTransform="matrix(1, 0, 0, -1, -1107.29, 1597.71)" xlink:href="#linear-gradient-5"/><linearGradient id="linear-gradient-33" x1="1408.88" y1="441.09" x2="1448.93" y2="678.75" xlink:href="#linear-gradient-14"/><linearGradient id="linear-gradient-34" x1="1383.6" y1="681.65" x2="1404.36" y2="1124.01" gradientTransform="matrix(1, 0, 0, 1, 0, 0)" xlink:href="#linear-gradient-14"/><linearGradient id="linear-gradient-35" x1="1426.21" y1="616.33" x2="1504.06" y2="1016.33" gradientUnits="userSpaceOnUse"><stop offset="0" stop-color="#3dc5f9"/><stop offset="1" stop-color="#540ab8"/></linearGradient><linearGradient id="linear-gradient-36" x1="1588.36" y1="785.98" x2="1587.02" y2="872.79" xlink:href="#linear-gradient-35"/><linearGradient id="linear-gradient-37" x1="1261.46" y1="764.68" x2="1421.78" y2="1146.23" xlink:href="#linear-gradient-35"/><linearGradient id="linear-gradient-38" x1="1359.59" y1="759.38" x2="1259.86" y2="865.43" gradientTransform="matrix(-1, 0, 0, 1, 2552.47, 0)" xlink:href="#linear-gradient-2"/><linearGradient id="linear-gradient-39" x1="1261.07" y1="585.56" x2="1310.81" y2="1088.22" xlink:href="#linear-gradient-35"/><linearGradient id="linear-gradient-40" x1="1346" y1="576.93" x2="1395.79" y2="1080.2" xlink:href="#linear-gradient-35"/><linearGradient id="linear-gradient-41" x1="1280.55" y1="681.65" x2="1301.31" y2="1124.01" xlink:href="#linear-gradient-14"/><linearGradient id="linear-gradient-42" x1="1323.16" y1="616.33" x2="1401.01" y2="1016.33" gradientTransform="matrix(-1, 0, 0, 1, 1817.58, 0)" gradientUnits="userSpaceOnUse"><stop offset="0" stop-color="#f9ca54"/><stop offset="1" stop-color="#ff5c45"/></linearGradient><linearGradient id="linear-gradient-43" x1="337.92" y1="696.19" x2="333.91" y2="865.97" gradientTransform="matrix(1, 0, 0, 1, 0, 0)" xlink:href="#linear-gradient-42"/><linearGradient id="linear-gradient-44" x1="603.3" y1="714.79" x2="555.25" y2="1523.69" gradientTransform="matrix(1, 0, 0, 1, 0, 0)" xlink:href="#linear-gradient-42"/><linearGradient id="linear-gradient-45" x1="727.65" y1="759.38" x2="627.92" y2="865.43" xlink:href="#linear-gradient-2"/><linearGradient id="linear-gradient-46" x1="679.19" y1="502.91" x2="616.6" y2="953.06" gradientTransform="matrix(1, 0, 0, 1, 0, 0)" xlink:href="#linear-gradient-42"/><linearGradient id="linear-gradient-47" x1="595.11" y1="490.75" x2="532.4" y2="941.67" gradientTransform="matrix(1, 0, 0, 1, 0, 0)" xlink:href="#linear-gradient-42"/><linearGradient id="linear-gradient-48" x1="950.12" y1="692.5" x2="963.5" y2="1111.25" gradientTransform="matrix(1, 0, 0, 1, 0, 0)" xlink:href="#linear-gradient-14"/><linearGradient id="linear-gradient-49" x1="962.78" y1="1026.89" x2="952.11" y2="782.79" gradientTransform="matrix(1, -0.03, 0.03, 1, -24.32, 36.26)" xlink:href="#linear-gradient-42"/><linearGradient id="linear-gradient-50" x1="920.65" y1="994.38" x2="1095.64" y2="695.59" gradientTransform="matrix(1, -0.03, 0.03, 1, -24.32, 36.26)" xlink:href="#linear-gradient-42"/><linearGradient id="linear-gradient-51" x1="992.32" y1="797.28" x2="953.13" y2="995.02" gradientTransform="matrix(1, -0.03, 0.03, 1, -24.32, 36.26)" gradientUnits="userSpaceOnUse"><stop offset="0" stop-color="#f9ca54"/><stop offset="1" stop-color="#fff545"/></linearGradient></defs><title>camp</title><g class="cls-1"><g id="Layer_1" data-name="Layer 1"><path class="cls-2" d="M947.24,798.86v91.56L881.91,889h0l-23.56-.52h0l-684.14-15-16.27-.35-15.8-.34L1,869.69V292.91c114.54,41.63,324.32-5.41,445.56,121.47,85.93,89.92,159.57,114.77,228.87,134.77,31,8.94,61.17,16.91,91.15,29.3a317.94,317.94,0,0,1,70.66,39.94C958.57,709.43,947.24,798.86,947.24,798.86Z" transform="translate(-1)"/><path class="cls-3" d="M441.06,551.65H1V403.19c6.66-2.91,16.69-4.25,30.38,1.85,27.71,12.3,19.36,34.49,19.36,34.49s32.12-16.15,53.92,0,17.41,47.26,17.41,47.26,35.93-16.77,58-9.27,20,45.7,20,45.7l24.66,2.9,95,11.21Z" transform="translate(-1)"/><path class="cls-4" d="M1920,292.91V869.69l-126.09,2.77-14.38.31-1.43,0-679,14.87h0l-30.39.67h0l-94.93,2.08V798.86s-11.33-89.43,110-180.47c36.21-27.15,71.81-41.87,108.07-53.46,27.42-8.73,55.19-15.7,83.87-24.87,60.55-19.37,125.14-48.65,198.74-125.68C1595.68,287.5,1805.46,334.54,1920,292.91Z" transform="translate(-1)"/><path class="cls-5" d="M1920,333.32V551.65H1458.3l178.21-21,62.73-7.39s-1.74-32.3,15.15-43.32a21.67,21.67,0,0,1,4.88-2.38c22.09-7.5,58,9.27,58,9.27s-4.42-31.11,17.39-47.26,53.92,0,53.92,0S1840.27,417.34,1868,405c27.07-12.05,39.9,4.92,40.49,5.7C1907.86,409.12,1887.34,353.51,1920,333.32Z" transform="translate(-1)"/><rect class="cls-6" x="30.73" y="735.19" width="15.8" height="98.22" transform="translate(76.26 1568.61) rotate(180)"/><path class="cls-7" d="M95.76,759.84H1V641.38l47.66-12.06H2.4L24,562.39a15.36,15.36,0,0,1,29.3,0l13.46,41.75H46l22.62,5.71L95,691.66H67l30.5,7.71,2.58,8,1.54,4.77,8.81,27.34A15.51,15.51,0,0,1,95.76,759.84Z" transform="translate(-1)"/><rect class="cls-8" x="142.12" y="780.28" width="15.8" height="98.22" transform="translate(299.04 1658.77) rotate(180)"/><path class="cls-9" d="M92.89,804.93H207.15a15.52,15.52,0,0,0,14.64-20.35l-12.93-40.13-30.51-7.71h28L180,654.94l-22.63-5.72h20.78l-13.46-41.74a15.37,15.37,0,0,0-29.3,0l-21.59,66.93h46.27l-50.39,12.75L78.24,784.58A15.52,15.52,0,0,0,92.89,804.93Z" transform="translate(-1)"/><rect class="cls-10" x="1778.1" y="780.28" width="15.8" height="98.22" transform="translate(3571.01 1658.77) rotate(180)"/><path class="cls-11" d="M1728.88,804.93h114.25a15.52,15.52,0,0,0,14.65-20.35l-12.94-40.13-30.5-7.71h28L1816,654.94l-22.62-5.72h20.78l-13.46-41.74a15.38,15.38,0,0,0-29.31,0l-21.58,66.93H1796l-50.39,12.75-31.42,97.42A15.52,15.52,0,0,0,1728.88,804.93Z" transform="translate(-1)"/><rect class="cls-12" x="524.68" y="712.96" width="15.8" height="98.22"/><path class="cls-13" d="M590.71,737.62H476.46a15.52,15.52,0,0,1-14.65-20.36l12.94-40.12,30.5-7.72h-28l26.39-81.8,22.62-5.72H505.47l13.46-41.73a15.43,15.43,0,0,1,14.65-10.74,15.24,15.24,0,0,1,9.06,3,15.46,15.46,0,0,1,5.6,7.77l21.58,66.92H523.55l50.39,12.75,31.42,97.42A15.52,15.52,0,0,1,590.71,737.62Z" transform="translate(-1)"/><rect class="cls-14" x="259.29" y="692.54" width="22.3" height="138.63" transform="translate(539.89 1523.7) rotate(180)"/><path class="cls-15" d="M189.81,727.34H351.08a21.91,21.91,0,0,0,20.67-28.74L353.49,642l-43.05-10.89H350L312.73,515.63l-31.93-8.07h29.33l-19-58.91a21.7,21.7,0,0,0-41.37,0L219.3,543.11h65.31l-71.12,18L169.14,698.6A21.91,21.91,0,0,0,189.81,727.34Z" transform="translate(-1)"/><rect class="cls-16" x="705.13" y="730.51" width="22.3" height="138.63" transform="translate(1431.57 1599.66) rotate(180)"/><path class="cls-17" d="M635.65,765.31H796.92a21.91,21.91,0,0,0,20.67-28.73L799.33,680l-43.05-10.89h39.53L758.57,553.61l-31.93-8.08H756l-19-58.9a21.7,21.7,0,0,0-41.37,0l-30.46,94.46h65.31l-71.12,18L615,736.58A21.91,21.91,0,0,0,635.65,765.31Z" transform="translate(-1)"/><path class="cls-18" d="M186.16,821.4a118.26,118.26,0,0,1-12,52.08c-19.07,39.16-59,66.1-105.12,66.1A115.68,115.68,0,0,1,1,917.56V725.21a115.68,115.68,0,0,1,68.07-22q3.65,0,7.24.22l-6.55,56.42-.69,6,2.31-6,21-54.31c2.6.54,5.17,1.15,7.7,1.86,1,.24,1.88.52,2.81.8a117.06,117.06,0,0,1,50.75,31.43l-49.76,51.55,59.36-40.06A118.14,118.14,0,0,1,185,804.93,120.84,120.84,0,0,1,186.16,821.4Z" transform="translate(-1)"/><path class="cls-19" d="M835,878.59a65.36,65.36,0,0,0,91.2-18.2,66.71,66.71,0,0,0-18-92,64.9,64.9,0,0,0-39.65-11.16l0,40.46-8.28-39.53a65.36,65.36,0,0,0-34.89,18.19l20.6,29.8L819.32,783.2c-.82,1.08-1.61,2.19-2.37,3.34A66.73,66.73,0,0,0,835,878.59Z" transform="translate(-1)"/><rect class="cls-20" x="1564.43" y="749.75" width="15.8" height="98.22"/><path class="cls-21" d="M1630.46,774.4H1516.2A15.52,15.52,0,0,1,1501.56,754l12.93-40.12L1545,706.2h-28l26.38-81.79,22.63-5.72h-20.78L1558.68,577a15.38,15.38,0,0,1,29.31,0l21.58,66.93H1563.3l50.39,12.75L1645.11,754A15.53,15.53,0,0,1,1630.46,774.4Z" transform="translate(-1)"/><rect class="cls-22" x="1412.58" y="712.96" width="15.8" height="98.22" transform="translate(2839.96 1524.15) rotate(180)"/><path class="cls-23" d="M1363.35,737.62h114.26a15.52,15.52,0,0,0,14.64-20.36l-12.93-40.12-30.51-7.72h28l-26.38-81.8-22.63-5.72h20.78l-13.46-41.73a15.37,15.37,0,0,0-29.3,0l-21.59,66.92h46.27l-50.39,12.75-31.42,97.42A15.53,15.53,0,0,0,1363.35,737.62Z" transform="translate(-1)"/><rect class="cls-24" x="1874.47" y="735.19" width="15.8" height="98.22" transform="translate(3763.74 1568.61) rotate(180)"/><path class="cls-25" d="M1920,691.66h-9.29L1920,694v65.83h-94.76a15.07,15.07,0,0,1-6.78-1.58h0a15.58,15.58,0,0,1-7.85-18.76l4.07-12.6,12.24-38v0L1842,642.08l50.39-12.76h-46.27l21.58-66.93a15.36,15.36,0,0,1,29.3,0l13.46,41.75h-20.77l22.62,5.71,7.67,23.77Z" transform="translate(-1)"/><rect class="cls-26" x="1671.47" y="692.54" width="22.3" height="138.63"/><path class="cls-27" d="M1764.25,727.34H1603a21.91,21.91,0,0,1-20.67-28.74L1600.57,642l43.06-10.89h-39.54l37.24-115.45,31.94-8.07h-29.33l19-58.91a21.7,21.7,0,0,1,41.36,0l30.47,94.46h-65.32l71.13,18,44.34,137.5A21.91,21.91,0,0,1,1764.25,727.34Z" transform="translate(-1)"/><rect class="cls-28" x="1225.63" y="730.51" width="22.3" height="138.63"/><path class="cls-29" d="M1318.41,765.31H1157.15a21.9,21.9,0,0,1-20.67-28.73L1154.74,680l43-10.89h-39.54l37.24-115.45,31.94-8.08H1198.1l19-58.9a21.7,21.7,0,0,1,41.36,0l30.47,94.46h-65.31l71.12,18,44.34,137.5A21.9,21.9,0,0,1,1318.41,765.31Z" transform="translate(-1)"/><path class="cls-30" d="M1920,708.56V934.22a116.65,116.65,0,0,1-137.52-55.73c-1-1.88-2-3.77-3-5.72-.5-1-1-2-1.43-3.1a118.59,118.59,0,0,1-10.19-48.27,120.84,120.84,0,0,1,1.12-16.47,118.14,118.14,0,0,1,21.83-53.82l59.36,40.06-31.76-32.91h0l-7.21-7.47-10.78-11.17a118.31,118.31,0,0,1,14.21-12.72,116.11,116.11,0,0,1,47-21.37l12.74,33,8.23,21.3,2.31,6-.69-6-2.86-24.64-3.69-31.78c2.39-.15,4.81-.22,7.24-.22A116.34,116.34,0,0,1,1920,708.56Z" transform="translate(-1)"/><path class="cls-31" d="M1119.08,878.59a65.36,65.36,0,0,1-91.2-18.2c-20.2-30.45-12.12-71.66,18-92a64.9,64.9,0,0,1,39.65-11.16l0,40.46,8.27-39.53a65.36,65.36,0,0,1,34.89,18.19l-20.6,29.8,26.59-22.91c.82,1.08,1.6,2.19,2.36,3.34A66.72,66.72,0,0,1,1119.08,878.59Z" transform="translate(-1)"/><rect class="cls-32" y="816.35" width="1919" height="263.65"/><rect class="cls-33" x="346.9" y="749.75" width="16.49" height="98.22" transform="translate(709.29 1597.71) rotate(180)"/><path class="cls-34" d="M295.51,774.4H414.77c10.93,0,18.67-10.31,15.29-20.36l-13.5-40.12-31.84-7.72H414l-27.54-81.79-23.62-5.72h21.69L370.44,577a16.05,16.05,0,0,0-15.29-10.74,16.42,16.42,0,0,0-9.46,3,15.53,15.53,0,0,0-5.84,7.77l-22.53,66.93h48.3L313,656.63,280.22,754C276.85,764.09,284.59,774.4,295.51,774.4Z" transform="translate(-1)"/><path class="cls-35" d="M1747.51,967.13H1044.77c-10.49,0-19-8.22-19-18.36h0c0-10.14,8.5-18.37,19-18.37h702.74c10.48,0,19,8.23,19,18.37h0C1766.49,958.91,1758,967.13,1747.51,967.13Z" transform="translate(-1)"/><path class="cls-36" d="M1671.85,906.7v42.07H1301.79V906.7s36.23-29,76.83-67.8l-5.76-.55L1330,698.17h156.85C1508.25,775.77,1671.85,906.7,1671.85,906.7Z" transform="translate(-1)"/><rect class="cls-37" x="1501.51" y="906.7" width="169.34" height="42.06"/><path class="cls-38" d="M1515,906.7v42.07H1144.94V906.7s163.58-130.93,185-208.53C1351.41,775.77,1515,906.7,1515,906.7Z" transform="translate(-1)"/><path class="cls-39" d="M1144.85,906.7v8.5c13.62-14.12,46.76-13.72,52.88-35.16,7.34-25.77,59.26-17.76,61.56-52.43s41.81-34.21,44.58-65.54c2.4-27.2,29.88-33.5,27.32-59.67-.5-1.43-.93-2.84-1.31-4.23C1308.43,775.77,1144.85,906.7,1144.85,906.7Z" transform="translate(-1)"/><polygon class="cls-40" points="1328.97 765.26 1294.97 948.77 1362.98 948.77 1328.97 765.26"/><polygon class="cls-41" points="1328.97 765.26 1243.19 911.44 1294.97 948.77 1328.97 765.26"/><polygon class="cls-42" points="1328.97 765.26 1414.75 911.44 1362.98 948.77 1328.97 765.26"/><polyline class="cls-43" points="1514 906.71 1607.73 948.77 1614.47 935.14"/><polyline class="cls-43" points="1143.94 906.71 1050.21 948.77 1043.47 935.14"/><polyline class="cls-43" points="1670.85 906.71 1750.33 948.77 1757.68 935.14"/><path class="cls-44" d="M173.13,967.13H875.87c10.49,0,19-8.22,19-18.36h0c0-10.14-8.5-18.37-19-18.37H173.13c-10.49,0-19,8.23-19,18.37h0C154.14,958.91,162.64,967.13,173.13,967.13Z" transform="translate(-1)"/><path class="cls-45" d="M248.79,906.7v42.07H618.84V906.7s-36.22-29-76.83-67.8l5.76-.55,42.89-140.18H433.82C412.38,775.77,248.79,906.7,248.79,906.7Z" transform="translate(-1)"/><rect class="cls-46" x="247.79" y="906.7" width="169.34" height="42.06"/><path class="cls-47" d="M775.68,906.7v42.07H405.62V906.7S563.39,780.43,589.34,702.4c.5-1.43.94-2.84,1.31-4.23C612.11,775.77,775.68,906.7,775.68,906.7Z" transform="translate(-1)"/><path class="cls-48" d="M775.68,906.7v8.5c-13.62-14.12-46.75-13.72-52.87-35.16-7.35-25.77-59.27-17.76-61.57-52.43s-41.81-34.21-44.58-65.54c-2.39-27.2-29.88-33.5-27.32-59.67.5-1.43.94-2.84,1.31-4.23C612.11,775.77,775.68,906.7,775.68,906.7Z" transform="translate(-1)"/><polygon class="cls-40" points="589.66 765.26 623.66 948.77 555.66 948.77 589.66 765.26"/><polygon class="cls-49" points="589.66 765.26 675.44 911.44 623.66 948.77 589.66 765.26"/><polygon class="cls-50" points="589.66 765.26 503.88 911.44 555.66 948.77 589.66 765.26"/><polyline class="cls-43" points="404.63 906.71 310.9 948.77 304.16 935.14"/><polyline class="cls-43" points="774.69 906.71 868.42 948.77 875.16 935.14"/><polyline class="cls-43" points="247.79 906.71 168.3 948.77 160.95 935.14"/><path class="cls-51" d="M1049.75,1034.83H870.88c-13.29,0-24.06-10.42-24.06-23.27h0c0-12.85,10.77-23.27,24.06-23.27h178.87c13.29,0,24.06,10.42,24.06,23.27h0C1073.81,1024.41,1063,1034.83,1049.75,1034.83Z" transform="translate(-1)"/><path class="cls-52" d="M1026.16,1005.55l-62.66-54a7.55,7.55,0,0,0-11.29,1.69l-9.36,15.29a7,7,0,0,0,1.62,9.14l68.81,55.53a7.47,7.47,0,0,0,12-4.19l3.21-16.78A7,7,0,0,0,1026.16,1005.55Z" transform="translate(-1)"/><path class="cls-53" d="M963.9,964.49l-81,21.52a7.1,7.1,0,0,0-4.67,10.09l8.19,15.9a7.5,7.5,0,0,0,8.82,3.64L980.87,990a7.06,7.06,0,0,0,2.9-12l-12.83-11.73A7.58,7.58,0,0,0,963.9,964.49Z" transform="translate(-1)"/><path class="cls-54" d="M1044.91,971.17,967,940.86a7.44,7.44,0,0,0-10,5.3l-3.44,17.44a7.12,7.12,0,0,0,4.73,8.07l84.19,29.7c5.32,1.88,10.76-2.48,9.84-7.88l-2.85-16.84A7.2,7.2,0,0,0,1044.91,971.17Z" transform="translate(-1)"/><path class="cls-55" d="M951.92,984c-60.08,8.72-81.25-64.41-55.4-97.53s11.48,13.27,27.59,18.39,35-25.71,23.34-62.09,6.35-83.77,20.38-77-2.05,30.14,10.68,52.86,30,24.83,34.85,51.65-9.19,36.45-1.17,46.86,10.69-19,23.92-8.46S1039.32,994.26,951.92,984Z" transform="translate(-1)"/><path class="cls-56" d="M951.92,984c-37.39-6.76-53-59.67-41.57-65.07s4.34,10.54,26.19,13.1,39.7-40.38,30.78-59.66,10.83-29.68,18.25-6.8,14.54,33.92,9,62,4.64,10.23,15.36,19.08S1011.21,983.89,951.92,984Z" transform="translate(-1)"/><path class="cls-57" d="M959.87,981.28q-1.41,0-2.85.06a6,6,0,0,1-1.52-.16c-12.41-3-20.63-13.27-24.51-19.29,0-.09-.11-.17-.17-.26-2.48-3.9.94-8.88,5.62-8.18l1.67.22a28.21,28.21,0,0,0,4.31.18c11.65-.37,22.66-7.67,31-20.56.52-.8,1-1.63,1.52-2.48,3.15-5.36,11.64-2.49,10.48,3.57,0,.14,0,.28-.08.42-2.14,10.9-3.32,19.73,2.27,26.05,2.18,2.45,6.15,5.33,12.75,5.12,1.17,0,2.21-.15,3.13-.26l.61-.07a9.15,9.15,0,0,1-1.74,2.83C1000,971.23,990,980.33,959.87,981.28Z" transform="translate(-1)"/><path class="cls-58" d="M1,1080V27.7C1,12.4,15.32,0,33,0H1888c17.67,0,32,12.4,32,27.7V1080" transform="translate(-1)"/></g><g id="Layer_2" data-name="Layer 2"><circle class="cls-59" cx="127.5" cy="68.5" r="3.5"/><circle class="cls-59" cx="1328.5" cy="240.5" r="3.5"/><circle class="cls-59" cx="1693.5" cy="108.5" r="3.5"/><circle class="cls-59" cx="1150.5" cy="486.5" r="3.5"/><circle class="cls-59" cx="869.5" cy="580.5" r="3.5"/><circle class="cls-59" cx="1015.5" cy="551.5" r="3.5"/><circle class="cls-59" cx="1001.5" cy="643.5" r="3.5"/><circle class="cls-59" cx="1243.5" cy="412.5" r="3.5"/><circle class="cls-59" cx="503.5" cy="416.5" r="3.5"/><circle class="cls-59" cx="204.5" cy="256.5" r="3.5"/><circle class="cls-59" cx="588.5" cy="244.5" r="3.5"/><circle class="cls-59" cx="804.5" cy="460.5" r="3.5"/><circle class="cls-59" cx="697.5" cy="90.5" r="3.5"/><circle class="cls-59" cx="1172.5" cy="129.5" r="3.5"/><circle class="cls-59" cx="1550.5" cy="225.5" r="3.5"/><circle class="cls-59" cx="1445.5" cy="157.5" r="3.5"/><circle class="cls-59" cx="1395.5" cy="352.5" r="3.5"/><circle class="cls-59" cx="1812.5" cy="199.5" r="3.5"/><circle class="cls-59" cx="972.5" cy="52.5" r="3.5"/><circle class="cls-59" cx="473.5" cy="29.5" r="3.5"/><circle class="cls-59" cx="1362.5" cy="86.5" r="3.5"/><circle class="cls-59" cx="534.78" cy="137.63" r="2.37"/><circle class="cls-59" cx="33.37" cy="53.5" r="2.37"/><circle class="cls-59" cx="384.83" cy="267.9" r="2.37"/><circle class="cls-59" cx="201.64" cy="118.63" r="2.37"/><circle class="cls-59" cx="1095.89" cy="80.63" r="2.37"/><circle class="cls-59" cx="536.81" cy="400.88" r="2.37"/><circle class="cls-59" cx="626.37" cy="443.63" r="2.37"/><circle class="cls-59" cx="703.04" cy="291.64" r="2.37"/><circle class="cls-59" cx="288.49" cy="289.61" r="2.37"/><circle class="cls-59" cx="85.62" cy="181.05" r="2.37"/><circle class="cls-59" cx="346.16" cy="172.91" r="2.37"/><circle class="cls-59" cx="492.71" cy="319.46" r="2.37"/><circle class="cls-59" cx="420.11" cy="68.42" r="2.37"/><circle class="cls-59" cx="742.39" cy="94.88" r="2.37"/><circle class="cls-59" cx="998.86" cy="160.02" r="2.37"/><circle class="cls-59" cx="927.62" cy="113.88" r="2.37"/><circle class="cls-59" cx="1176.63" cy="142.38" r="2.37"/><circle class="cls-59" cx="606.7" cy="42.64" r="2.37"/><circle class="cls-59" cx="268.13" cy="27.03" r="2.37"/><circle class="cls-59" cx="871.31" cy="65.71" r="2.37"/><circle class="cls-59" cx="1406.56" cy="299.63" r="2.32"/><circle class="cls-59" cx="1859.87" cy="204.06" r="2.32"/><circle class="cls-59" cx="1164.3" cy="387.24" r="2.32"/><circle class="cls-59" cx="1524.7" cy="136.36" r="2.32"/><circle class="cls-59" cx="1711.2" cy="73.97" r="2.32"/><circle class="cls-59" cx="1614.3" cy="93.22" r="2.32"/><circle class="cls-59" cx="1623.59" cy="32.16" r="2.32"/><circle class="cls-59" cx="1548.59" cy="180.83" r="2.32"/><circle class="cls-59" cx="1754.34" cy="153.62" r="2.32"/><circle class="cls-59" cx="1510.1" cy="373.31" r="2.32"/><circle class="cls-59" cx="1328.91" cy="354.72" r="2.32"/><circle class="cls-59" cx="1362.09" cy="225.3" r="2.32"/><circle class="cls-59" cx="1383.99" cy="401.85" r="2.32"/><circle class="cls-59" cx="569.84" cy="216.64" r="1.53"/><circle class="cls-59" cx="367.91" cy="195.66" r="1.53"/><circle class="cls-59" cx="666.43" cy="132.73" r="1.53"/><circle class="cls-59" cx="445.71" cy="88.15" r="1.53"/><circle class="cls-59" cx="568.53" cy="47.06" r="1.53"/><circle class="cls-59" cx="504.71" cy="59.74" r="1.53"/><circle class="cls-59" cx="510.83" cy="19.53" r="1.53"/><circle class="cls-59" cx="461.45" cy="117.43" r="1.53"/><circle class="cls-59" cx="728.49" cy="118.74" r="1.53"/><circle class="cls-59" cx="691.34" cy="193.92" r="1.53"/><circle class="cls-59" cx="596.93" cy="99.51" r="1.53"/><circle class="cls-59" cx="643.7" cy="261.22" r="1.53"/><circle class="cls-59" cx="436.1" cy="244.18" r="1.53"/><circle class="cls-59" cx="270.89" cy="202.22" r="1.53"/><circle class="cls-59" cx="316.78" cy="231.94" r="1.53"/><circle class="cls-59" cx="338.63" cy="146.71" r="1.53"/><circle class="cls-59" cx="156.38" cy="213.58" r="1.53"/><circle class="cls-59" cx="523.51" cy="277.83" r="1.53"/><circle class="cls-59" cx="741.6" cy="287.88" r="1.53"/><circle class="cls-59" cx="353.05" cy="262.97" r="1.53"/><circle class="cls-59" cx="714.82" cy="240.63" r="1.04"/><circle class="cls-59" cx="577.82" cy="226.39" r="1.04"/><circle class="cls-59" cx="780.35" cy="183.69" r="1.04"/><circle class="cls-59" cx="469.58" cy="265.54" r="1.04"/><circle class="cls-59" cx="630.6" cy="153.44" r="1.04"/><circle class="cls-59" cx="713.93" cy="125.57" r="1.04"/><circle class="cls-59" cx="670.64" cy="134.17" r="1.04"/><circle class="cls-59" cx="674.79" cy="106.89" r="1.04"/><circle class="cls-59" cx="641.28" cy="173.31" r="1.04"/><circle class="cls-59" cx="822.46" cy="174.2" r="1.04"/><circle class="cls-59" cx="733.2" cy="161.15" r="1.04"/><circle class="cls-59" cx="764.93" cy="270.87" r="1.04"/><circle class="cls-59" cx="624.08" cy="259.31" r="1.04"/><circle class="cls-59" cx="511.99" cy="230.84" r="1.04"/><circle class="cls-59" cx="543.12" cy="251.01" r="1.04"/><circle class="cls-59" cx="557.95" cy="193.18" r="1.04"/><circle class="cls-59" cx="434.29" cy="238.55" r="1.04"/><circle class="cls-59" cx="683.39" cy="282.14" r="1.04"/><circle class="cls-59" cx="567.74" cy="272.06" r="1.04"/><circle class="cls-59" cx="199.78" cy="155.9" r="1.02"/><circle class="cls-59" cx="333.8" cy="169.82" r="1.02"/><circle class="cls-59" cx="135.67" cy="211.59" r="1.02"/><circle class="cls-59" cx="57.35" cy="147.77" r="1.02"/><circle class="cls-59" cx="439.68" cy="131.53" r="1.02"/><circle class="cls-59" cx="282.16" cy="241.18" r="1.02"/><circle class="cls-59" cx="200.65" cy="268.45" r="1.02"/><circle class="cls-59" cx="243" cy="260.04" r="1.02"/><circle class="cls-59" cx="238.94" cy="286.72" r="1.02"/><circle class="cls-59" cx="271.72" cy="221.74" r="1.02"/><circle class="cls-59" cx="94.48" cy="220.87" r="1.02"/><circle class="cls-59" cx="7.75" cy="174.46" r="1.02"/><circle class="cls-59" cx="119.14" cy="170.98" r="1.02"/><circle class="cls-59" cx="181.8" cy="233.64" r="1.02"/><circle class="cls-59" cx="150.76" cy="126.31" r="1.02"/><circle class="cls-59" cx="288.55" cy="137.62" r="1.02"/><circle class="cls-59" cx="398.2" cy="165.47" r="1.02"/><circle class="cls-59" cx="367.74" cy="145.74" r="1.02"/><circle class="cls-59" cx="353.23" cy="202.31" r="1.02"/><circle class="cls-59" cx="474.2" cy="157.93" r="1.02"/><circle class="cls-59" cx="230.53" cy="115.28" r="1.02"/><circle class="cls-59" cx="85.78" cy="108.61" r="1.02"/><circle class="cls-59" cx="343.66" cy="125.15" r="1.02"/><circle class="cls-59" cx="1597.42" cy="137.64" r="1.97"/><circle class="cls-59" cx="1182.22" cy="67.98" r="1.97"/><circle class="cls-59" cx="1856.99" cy="164.61" r="1.97"/><circle class="cls-59" cx="1473.25" cy="245.52" r="1.97"/><circle class="cls-59" cx="1321.55" cy="121.91" r="1.97"/><circle class="cls-59" cx="1756.98" cy="302.82" r="1.97"/><circle class="cls-59" cx="1736.75" cy="265.18" r="1.97"/><circle class="cls-59" cx="1393.47" cy="263.5" r="1.97"/><circle class="cls-59" cx="1225.48" cy="173.6" r="1.97"/><circle class="cls-59" cx="1441.23" cy="166.86" r="1.97"/><circle class="cls-59" cx="1562.58" cy="288.22" r="1.97"/><circle class="cls-59" cx="1502.47" cy="80.34" r="1.97"/><circle class="cls-59" cx="1769.34" cy="102.25" r="1.97"/><circle class="cls-59" cx="1894.63" cy="227.54" r="1.97"/><circle class="cls-59" cx="1656.97" cy="58.99" r="1.97"/><circle class="cls-59" cx="1376.61" cy="46.06" r="1.97"/><circle class="cls-59" cx="1876.09" cy="78.09" r="1.97"/><circle class="cls-59" cx="1411.04" cy="106.81" r="1.33"/><circle class="cls-59" cx="1129.33" cy="59.55" r="1.33"/><circle class="cls-59" cx="1587.16" cy="125.11" r="1.33"/><circle class="cls-59" cx="1326.8" cy="180.01" r="1.33"/><circle class="cls-59" cx="1223.87" cy="96.14" r="1.33"/><circle class="cls-59" cx="1726.29" cy="74.79" r="1.33"/><circle class="cls-59" cx="1519.3" cy="218.89" r="1.33"/><circle class="cls-59" cx="1412.18" cy="254.72" r="1.33"/><circle class="cls-59" cx="1467.84" cy="243.67" r="1.33"/><circle class="cls-59" cx="1462.5" cy="278.74" r="1.33"/><circle class="cls-59" cx="1505.58" cy="193.35" r="1.33"/><circle class="cls-59" cx="1272.67" cy="192.2" r="1.33"/><circle class="cls-59" cx="1158.69" cy="131.21" r="1.33"/><circle class="cls-59" cx="1305.07" cy="126.64" r="1.33"/><circle class="cls-59" cx="1387.41" cy="208.98" r="1.33"/><circle class="cls-59" cx="1346.62" cy="67.93" r="1.33"/><circle class="cls-59" cx="1527.69" cy="82.8" r="1.33"/><circle class="cls-59" cx="1671.78" cy="119.39" r="1.33"/><circle class="cls-59" cx="1631.76" cy="93.47" r="1.33"/><circle class="cls-59" cx="1612.7" cy="167.81" r="1.33"/><circle class="cls-59" cx="1771.66" cy="109.48" r="1.33"/><circle class="cls-59" cx="1451.45" cy="53.45" r="1.33"/><circle class="cls-59" cx="1261.23" cy="44.68" r="1.33"/><circle class="cls-59" cx="1600.12" cy="66.41" r="1.33"/><circle class="cls-59" cx="1900.84" cy="197.84" r="1.31"/><circle class="cls-59" cx="1764.73" cy="247.06" r="1.31"/><circle class="cls-59" cx="1818.06" cy="203.43" r="1.31"/><circle class="cls-59" cx="1857.21" cy="228.79" r="1.31"/><circle class="cls-59" cx="1875.86" cy="156.07" r="1.31"/><circle class="cls-59" cx="1720.36" cy="213.12" r="1.31"/><circle class="cls-59" cx="1888.16" cy="255.26" r="1.31"/><circle class="cls-59" cx="1059.98" cy="546.12" r="2.13"/><circle class="cls-59" cx="609.79" cy="470.58" r="2.13"/><circle class="cls-59" cx="760.87" cy="529.06" r="2.13"/><circle class="cls-59" cx="890.63" cy="577.8" r="2.13"/><circle class="cls-59" cx="1124.56" cy="460.83" r="2.13"/><circle class="cls-59" cx="820.57" cy="446.82" r="2.13"/><circle class="cls-59" cx="1362.14" cy="481.55" r="2.13"/><circle class="cls-59" cx="857.9" cy="512.69" r="1.45"/><circle class="cls-59" cx="552.45" cy="461.44" r="1.45"/><circle class="cls-59" cx="1048.86" cy="532.53" r="1.45"/><circle class="cls-59" cx="654.95" cy="501.12" r="1.45"/><circle class="cls-59" cx="1199.72" cy="477.97" r="1.45"/><circle class="cls-59" cx="975.28" cy="634.21" r="1.45"/><circle class="cls-59" cx="919.48" cy="661.08" r="1.45"/><circle class="cls-59" cx="960.4" cy="606.52" r="1.45"/><circle class="cls-59" cx="788.05" cy="470.53" r="1.45"/><circle class="cls-59" cx="1140.62" cy="526.33" r="1.45"/><circle class="cls-59" cx="1097.22" cy="498.23" r="1.45"/><circle class="cls-59" cx="1076.55" cy="578.83" r="1.45"/><circle class="cls-59" cx="695.46" cy="445.32" r="1.45"/><circle class="cls-59" cx="1062.91" cy="468.88" r="1.45"/></g></g></svg>