<svg id="Layer_1" data-name="Layer 1" xmlns="http://www.w3.org/2000/svg" viewBox="0 0 1072.89 835.25"><defs><style>.cls-1{fill:#29a4e2;}.cls-2{fill:#b6ba0c;}.cls-2,.cls-3,.cls-4{opacity:0.46;}.cls-3{fill:#d1d113;}.cls-4{fill:#e3e836;}.cls-5{fill:#ff0;}.cls-6{fill:#00844b;}.cls-7{fill:#236323;}.cls-8{fill:#004427;}.cls-9{fill:#006aac;}.cls-10{fill:#2dafe2;}.cls-11{fill:#666;}.cls-12{fill:#f78323;}.cls-13{fill:#4c4c4c;}.cls-14{fill:#8e8e8e;}.cls-15{fill:#ff6700;}.cls-16{fill:#ff9e3e;}.cls-17{fill:#fa0;}.cls-18{fill:#232323;}.cls-19{fill:#330;}.cls-20{fill:#ffcc3b;}.cls-21{fill:#ffd671;}.cls-22{fill:#fff;}</style></defs><title>camp-light</title><path class="cls-1" d="M1023.06,555.14q2-22.2,2-44.95c0-269.88-218.78-488.66-488.65-488.66S47.79,240.31,47.79,510.19q0,22.73,2,44.95Z"/><circle class="cls-2" cx="302.52" cy="192.92" r="192.92"/><circle class="cls-3" cx="302.52" cy="192.92" r="145.36"/><circle class="cls-4" cx="302.52" cy="192.92" r="102.78"/><circle class="cls-5" cx="302.52" cy="192.92" r="62.9"/><path class="cls-6" d="M1035.56,554.27S779.94,199.39,703.71,199.39C624.19,199.39,353.52,555,353.52,555Z"/><path class="cls-7" d="M614.87,554.74l415.86-.47,1.72-4.29C1004.64,511.77,797.1,229.46,715.4,201.61c-.56.59-1.11,1.2-1.63,1.85,0,0-88.56,116-57,120.12s69.22-7.12,64.13,10.18C718,343.49,662.75,457.1,614.87,554.74Z"/><path class="cls-6" d="M592.41,554.45S396.05,281.85,337.5,281.85c-61.08,0-269,273.19-269,273.19Z"/><path class="cls-7" d="M268.17,554.81l291.49-.33,1.58-42.06C505,438,387.9,289.91,341.14,282.17,320.49,304.09,246,385.39,273,390.09c31.22,5.43,86.19-1.36,78,15.6C346.32,415.55,303.36,492.24,268.17,554.81Z"/><path class="cls-8" d="M236,514.33c-19.92-11.55-36.32-28.35-49.61-46.52a280.53,280.53,0,0,0,36,2.58c-16.76-9.72-30.55-23.86-41.72-39.15A219.54,219.54,0,0,0,207.15,433c-15.05-8.73-27.07-22-36.46-36a190.85,190.85,0,0,0,29.47,2.5c-22.95-13.31-37.87-38.63-46.55-58.32q-1.26-2.88-2.36-5.57l-.7-1.77h0l-3.07,7.34c-8.68,19.68-23.6,45-46.54,58.31a190.77,190.77,0,0,0,29.46-2.5C121,411,109,424.3,93.94,433a219.75,219.75,0,0,0,26.55-1.79c-11.18,15.29-25,29.43-41.73,39.15a280.43,280.43,0,0,0,35.95-2.58C101.43,486,85,502.78,65.1,514.33a333.94,333.94,0,0,0,42.6-3,278.89,278.89,0,0,1-37.92,45.34H231.32a277.88,277.88,0,0,1-37.92-45.34A333.74,333.74,0,0,0,236,514.33Z"/><path class="cls-8" d="M318.39,517c-18.68-10.84-34.07-26.6-46.53-43.65a261.75,261.75,0,0,0,33.72,2.42c-15.72-9.11-28.66-22.38-39.14-36.73a207.16,207.16,0,0,0,24.9,1.68c-14.12-8.19-25.4-20.63-34.2-33.73a180,180,0,0,0,27.64,2.34c-21.53-12.49-35.53-36.24-43.67-54.71-.79-1.8-1.53-3.55-2.21-5.23-.23-.56-.45-1.11-.66-1.66h0l-2.88,6.89c-8.14,18.46-22.14,42.22-43.67,54.7a180.16,180.16,0,0,0,27.65-2.34c-8.81,13.1-20.09,25.54-34.21,33.73A207.16,207.16,0,0,0,210,439c-10.48,14.35-23.42,27.62-39.14,36.73a262,262,0,0,0,33.73-2.42c-12.47,17.05-27.86,32.81-46.54,43.65a313,313,0,0,0,40-2.86,261.17,261.17,0,0,1-35.58,42.54H314a260.69,260.69,0,0,1-35.57-42.54A312.83,312.83,0,0,0,318.39,517Z"/><path class="cls-8" d="M446.18,507.34c-23.21-13.46-42.32-33-57.8-54.21a326.59,326.59,0,0,0,41.88,3c-19.52-11.32-35.59-27.81-48.61-45.62a258.63,258.63,0,0,0,30.93,2.09C395,402.42,381,387,370.09,370.69a223.28,223.28,0,0,0,34.33,2.91c-26.74-15.51-44.12-45-54.23-68-1-2.23-1.9-4.4-2.75-6.49-.28-.7-.56-1.38-.82-2.06h0L343,305.65c-10.11,22.94-27.5,52.45-54.24,68a223.37,223.37,0,0,0,34.34-2.91C312.2,387,298.19,402.42,280.65,412.6a258.63,258.63,0,0,0,30.93-2.09c-13,17.82-29.09,34.3-48.62,45.62a326.89,326.89,0,0,0,41.9-3c-15.49,21.17-34.6,40.75-57.81,54.21a388.35,388.35,0,0,0,49.64-3.55,324.91,324.91,0,0,1-44.2,52.84H440.74a324.34,324.34,0,0,1-44.19-52.84A388.15,388.15,0,0,0,446.18,507.34Z"/><path class="cls-8" d="M824.13,500.93c-25.5-14.79-46.51-36.31-63.52-59.57a359,359,0,0,0,46,3.3c-21.46-12.45-39.12-30.56-53.42-50.14a282,282,0,0,0,34,2.29c-19.28-11.18-34.68-28.16-46.69-46.05a245.17,245.17,0,0,0,37.73,3.2c-29.39-17-48.5-49.47-59.61-74.69-1.08-2.45-2.09-4.84-3-7.13l-.91-2.26h0l-3.93,9.4c-11.11,25.21-30.22,57.64-59.6,74.68a245.17,245.17,0,0,0,37.73-3.2c-12,17.89-27.41,34.87-46.69,46.05a282.06,282.06,0,0,0,34-2.29c-14.3,19.58-32,37.69-53.43,50.14a359.14,359.14,0,0,0,46-3.3c-17,23.26-38,44.78-63.53,59.57A426.48,426.48,0,0,0,659.84,497c-14,20.56-30.09,40.49-48.56,58.07H818.15c-18.47-17.58-34.59-37.51-48.56-58.07A426.38,426.38,0,0,0,824.13,500.93Z"/><path class="cls-8" d="M927.71,512.81c-19.91-11.55-36.32-28.36-49.6-46.52a281.32,281.32,0,0,0,35.94,2.57c-16.75-9.71-30.54-23.86-41.72-39.15a221,221,0,0,0,26.55,1.8c-15.06-8.74-27.08-22-36.46-36A191.46,191.46,0,0,0,891.88,398c-23-13.31-37.87-38.63-46.54-58.32-.85-1.91-1.64-3.78-2.36-5.57l-.71-1.76h0l-3.07,7.34c-8.68,19.69-23.59,45-46.54,58.31a191.38,191.38,0,0,0,29.46-2.49c-9.38,14-21.4,27.23-36.46,36a221,221,0,0,0,26.55-1.8c-11.17,15.29-25,29.44-41.72,39.15a281.52,281.52,0,0,0,36-2.57c-13.29,18.16-29.69,35-49.61,46.52a332.94,332.94,0,0,0,42.6-3,278.52,278.52,0,0,1-37.93,45.35H923a279,279,0,0,1-37.92-45.35A332.84,332.84,0,0,0,927.71,512.81Z"/><path class="cls-8" d="M1050.72,511.58c-20.49-11.88-37.36-29.17-51-47.86a287.39,287.39,0,0,0,37,2.65c-17.24-10-31.43-24.55-42.92-40.28a228.07,228.07,0,0,0,27.31,1.85c-15.49-9-27.86-22.63-37.51-37a196.74,196.74,0,0,0,30.31,2.57c-23.61-13.7-39-39.75-47.89-60q-1.31-3-2.42-5.73c-.25-.62-.5-1.22-.73-1.82h0l-3.16,7.56c-8.93,20.25-24.28,46.3-47.89,60a196.91,196.91,0,0,0,30.32-2.57c-9.66,14.37-22,28-37.51,37a228.07,228.07,0,0,0,27.31-1.85c-11.5,15.73-25.69,30.29-42.93,40.28a287.49,287.49,0,0,0,37-2.65c-13.67,18.69-30.55,36-51,47.86a341.94,341.94,0,0,0,43.83-3.13,287,287,0,0,1-39,46.66h166.2a287,287,0,0,1-39-46.66A341.84,341.84,0,0,0,1050.72,511.58Z"/><rect class="cls-7" y="554.92" width="1072.89" height="74.66" rx="37.33"/><path class="cls-9" d="M790.4,732.53h0a15,15,0,0,1,14.94-14.94H348.52a15,15,0,0,1,14.94,14.94h0a15,15,0,0,1-14.94,14.94H805.34A15,15,0,0,1,790.4,732.53Z"/><path class="cls-9" d="M729.76,804.73H354.94A15,15,0,0,0,340,819.67h0a15,15,0,0,0,14.94,14.93H729.76a15,15,0,0,0,14.94-14.93h0A15,15,0,0,0,729.76,804.73Z"/><path class="cls-9" d="M908.26,747H215.1a15,15,0,0,0-14.94,14.94h0a15,15,0,0,0,14.94,14.94H908.26a15,15,0,0,0,14.94-14.94h0A15,15,0,0,0,908.26,747Z"/><path class="cls-9" d="M640.92,790.86h0a15,15,0,0,1,14.94-14.93H439.57a15,15,0,0,1,14.94,14.93h0a15,15,0,0,1-14.94,14.94H655.86A15,15,0,0,1,640.92,790.86Z"/><rect class="cls-9" x="138.7" y="629.46" width="812.5" height="29.88" rx="14.94"/><path class="cls-9" d="M863.12,688.25h-648a15,15,0,0,0-14.94,14.94h0a15,15,0,0,0,14.94,14.94h648a15,15,0,0,0,14.94-14.94h0A15,15,0,0,0,863.12,688.25Z"/><path class="cls-9" d="M712,674h0a15,15,0,0,1,14.94-14.94H411.52A15,15,0,0,1,426.46,674h0A15,15,0,0,1,411.52,689H726.91A15,15,0,0,1,712,674Z"/><rect class="cls-9" x="974.2" y="629.46" width="46.07" height="29.88" rx="14.94"/><rect class="cls-9" x="213.07" y="805.37" width="107.72" height="29.88" rx="14.94"/><path class="cls-10" d="M750.51,716.86H705a14.58,14.58,0,0,0-14.54,14.53h0A14.58,14.58,0,0,0,705,745.93h45.56a14.59,14.59,0,0,0,14.54-14.54h0A14.58,14.58,0,0,0,750.51,716.86Z"/><path class="cls-10" d="M633.52,716.86H612a14.58,14.58,0,0,0-14.54,14.53h0A14.59,14.59,0,0,0,612,745.93h21.56a14.59,14.59,0,0,0,14.54-14.54h0A14.58,14.58,0,0,0,633.52,716.86Z"/><rect class="cls-10" x="480.27" y="774.89" width="39.33" height="29.07" rx="14.54"/><path class="cls-10" d="M493.58,659.41H483.32a14.58,14.58,0,0,0-14.54,14.53h0a14.58,14.58,0,0,0,14.54,14.54h10.26a14.59,14.59,0,0,0,14.54-14.54h0A14.58,14.58,0,0,0,493.58,659.41Z"/><rect class="cls-9" x="52.62" y="629.46" width="66.76" height="29.88" rx="14.94"/><rect class="cls-9" x="144.56" y="746.45" width="44.75" height="29.88" rx="14.94"/><path class="cls-9" d="M162.89,688.52h-1.48a15,15,0,0,0-14.94,14.94h0a15,15,0,0,0,14.94,14.94h1.48a15,15,0,0,0,14.94-14.94h0A15,15,0,0,0,162.89,688.52Z"/><rect class="cls-9" x="96.79" y="688.88" width="31.35" height="29.88" rx="14.94"/><path class="cls-9" d="M960.26,747.33h-1.47a15,15,0,0,0-14.94,14.94h0a15,15,0,0,0,14.94,14.94h1.47a15,15,0,0,0,14.94-14.94h0A15,15,0,0,0,960.26,747.33Z"/><rect class="cls-9" x="762.19" y="804.08" width="31.35" height="29.88" rx="14.94"/><rect class="cls-9" x="813.96" y="804.08" width="31.35" height="29.88" rx="14.94"/><rect class="cls-11" x="495.34" y="506.76" width="215.58" height="77.82"/><polygon class="cls-12" points="732.45 506.76 568.01 506.76 453.93 356.81 618.37 356.81 732.45 506.76"/><rect class="cls-13" x="495.34" y="506.76" width="215.58" height="17.9"/><polygon class="cls-14" points="568.01 506.76 568.01 584.58 360.27 584.58 360.27 506.76 339.86 506.76 453.93 356.81 568.01 506.76"/><polygon class="cls-12" points="453.93 356.81 463.31 369.13 359.98 506.77 339.86 506.77 453.93 356.81"/><polygon class="cls-15" points="652.42 591.18 660.29 591.18 575.88 506.77 568.01 506.77 568 506.75 568.01 506.77 652.42 591.18"/><polygon class="cls-15" points="808.87 591.18 816.73 591.18 732.32 506.77 724.46 506.77 724.45 506.75 724.46 506.77 808.87 591.18"/><polygon class="cls-15" points="264.02 591.18 348.44 506.77 348.44 506.75 348.43 506.77 340.57 506.77 256.16 591.18 264.02 591.18"/><path class="cls-16" d="M618.37,356.81H453.93l96.72,127.13C648.74,469.25,618.37,356.81,618.37,356.81Z"/><path class="cls-17" d="M451.63,394.61"/><path class="cls-18" d="M451.49,422.23c-.08-.8-12.67,113.85-33.53,162.35h67.1C464.15,536.19,451.56,421.51,451.49,422.23Z"/><path class="cls-15" d="M451.49,422.23a.42.42,0,0,1,0,.11s-.05.3-.16.87C451.43,422.61,451.48,422.28,451.49,422.23Z"/><path class="cls-11" d="M519.64,584.58H485.06c-20.45-47.34-32.94-158.12-33.55-162.24C452.29,426.39,474,538.49,519.64,584.58Z"/><path class="cls-11" d="M451.35,423.25C449.9,434.71,437.59,538.94,418,584.58H385.51C427.67,545.92,449.26,434.47,451.35,423.25Z"/><rect class="cls-19" x="180.44" y="573.14" width="162.56" height="20.84" rx="10.42"/><path class="cls-17" d="M248.79,585.58c-12.1-1.18-22.27-10.09-28.64-20.44-5.7-9.28-9-21.94.45-35.48,19-27.09,19.79-39,19.79-39s8.55,9.8,8.13,18.13c0,0,11-28.55,4.79-38.34,0,0,39.8,32.72,34.18,62.72,0,0,7.29-14.79,16.88-16.25,0,0-6.85,8.92-6.63,26.68C298,562.09,292.43,589.81,248.79,585.58Z"/><path class="cls-20" d="M252.24,586.25c-8.2-.8-15.09-6.84-19.4-13.86-3.87-6.28-6.13-14.86.3-24C246,530,246.55,522,246.55,522s5.79,6.64,5.51,12.28c0,0,7.48-19.34,3.25-26,0,0,27,22.17,23.15,42.51,0,0,5-10,11.44-11,0,0-4.64,6-4.49,18.08C285.57,570.33,281.82,589.12,252.24,586.25Z"/><path class="cls-21" d="M254.59,587.13c-5.54-.53-10.2-4.62-13.12-9.36-2.61-4.25-4.14-10,.21-16.25,8.68-12.42,9.06-17.86,9.06-17.86s3.92,4.49,3.73,8.31c0,0,5.06-13.08,2.19-17.57,0,0,18.24,15,15.66,28.74,0,0,3.34-6.78,7.73-7.45,0,0-3.13,4.09-3,12.22C277.12,576.37,274.59,589.07,254.59,587.13Z"/><path class="cls-17" d="M225.16,502a3.73,3.73,0,1,1-3.73-3.74A3.73,3.73,0,0,1,225.16,502Z"/><path class="cls-17" d="M235,470.56a2.69,2.69,0,1,1-2.68-2.68A2.68,2.68,0,0,1,235,470.56Z"/><path class="cls-17" d="M262.22,453.51A3.22,3.22,0,1,1,259,450.3,3.22,3.22,0,0,1,262.22,453.51Z"/><path class="cls-17" d="M289.29,475.91a3.23,3.23,0,1,1-3.22-3.22A3.22,3.22,0,0,1,289.29,475.91Z"/><path class="cls-17" d="M313.38,520a1.36,1.36,0,1,1-1.36-1.36A1.36,1.36,0,0,1,313.38,520Z"/><path class="cls-17" d="M205.14,528a2.55,2.55,0,1,1-2.54-2.54A2.55,2.55,0,0,1,205.14,528Z"/><circle class="cls-17" cx="326.95" cy="546.83" r="2.71"/><path class="cls-22" d="M987.91,248.05A28,28,0,0,0,947.12,232a28,28,0,0,0-37.28-17.75,28,28,0,0,0-26.78-19.83,29.35,29.35,0,0,0-3.77.26,30.62,30.62,0,0,0-60.21,5.22,24,24,0,0,0-27.92,17.51h-.07A24.84,24.84,0,0,0,769,230.93a28,28,0,0,0-45.66,17.12Z"/><path class="cls-22" d="M246.54,297.16a21,21,0,0,0-28.31-13.63A21,21,0,0,0,192,270.6a19.48,19.48,0,0,0-29.72-14.2,25.88,25.88,0,0,0-49.41,10.77c0,.12,0,.25,0,.38a19.66,19.66,0,0,0-26.61,13.63,22,22,0,0,0-31.38,16Z"/><path class="cls-22" d="M678.14,153.76a31.83,31.83,0,0,0-30.72-23.52,32.23,32.23,0,0,0-5.85.54,31.82,31.82,0,0,0-47.89-14.66,27.74,27.74,0,0,0-20.81-9.38,31.14,31.14,0,0,0-61.37,1.2,23.94,23.94,0,0,0-32.2,22.46c0,.58,0,1.14.06,1.7h-.17a31.64,31.64,0,0,0-17.71,5.38,23.93,23.93,0,0,0-41.7,16v.25Z"/></svg>