<svg xmlns="http://www.w3.org/2000/svg" xmlns:xlink="http://www.w3.org/1999/xlink" viewBox="0 0 497.61 497.61"><defs><style>.cls-1{fill:url(#Flame);}.cls-2{fill:url(#Flame-2);}</style><linearGradient id="Flame" y1="248.8" x2="497.61" y2="248.8" gradientUnits="userSpaceOnUse"><stop offset="0" stop-color="#e82629"/><stop offset="1" stop-color="#f59222"/></linearGradient><linearGradient id="Flame-2" x1="91.04" y1="219.73" x2="407.19" y2="219.73" xlink:href="#Flame"/></defs><title>Asset 6</title><g id="Layer_2" data-name="Layer 2"><g id="Layer_1-2" data-name="Layer 1"><path class="cls-1" d="M248.8,20a228.88,228.88,0,0,1,89.06,439.64A228.87,228.87,0,0,1,159.75,38,227.47,227.47,0,0,1,248.8,20m0-20C111.39,0,0,111.39,0,248.8S111.39,497.61,248.8,497.61,497.61,386.22,497.61,248.8,386.22,0,248.8,0Z"/><path class="cls-2" d="M99.5,402.58Q88.93,399.4,91.57,391l130-349.31q2.64-5.8,8.46-5.81h7.39c3.88,0,6.69,1.94,8.46,5.81l62.89,191.83a9.26,9.26,0,0,1-.53,6.87,8.11,8.11,0,0,1-5.29,4.23,2.11,2.11,0,0,0-1.32.26,2.07,2.07,0,0,1-1.32.27q-5.82,0-8.46-6.34L233.2,60.14,108,397.29A8.83,8.83,0,0,1,99.5,402.58Zm49.67,1.05q-5.82-1.58-7.92-5a9.54,9.54,0,0,1-1.06-7.66q2.64-6.87,9-6.87a3.85,3.85,0,0,1,1.59.26,3.4,3.4,0,0,0,1.58.27,9.9,9.9,0,0,1,5.29,5,10,10,0,0,1,.53,7.13v.53Q155.51,403.64,149.17,403.63Zm9.51-29.06q-10.58-3.18-7.92-11.63l73.45-216.66c2.12-3.88,4.93-5.82,8.46-5.82a3.59,3.59,0,0,1,1.58.27,2.3,2.3,0,0,0,1.06.26,8,8,0,0,1,5.28,4.49,8.7,8.7,0,0,1,.53,6.61l-74,216.66C165.37,372.64,162.56,374.57,158.68,374.57ZM342.06,374q-6.35,0-7.93-5.81l-13.21-39.64H215.76a7.79,7.79,0,0,1-6.08-2.64,9.17,9.17,0,0,1-2.38-6.34c0-5.63,2.82-8.46,8.46-8.46h111.5q5.81,0,8.46,5.82l14.79,46a8.31,8.31,0,0,1-5.81,10.57Zm56.54,28.54a8.82,8.82,0,0,1-8.45-5.29l-42.28-115.2H230.55a8.41,8.41,0,0,1-6.6-2.64,9.14,9.14,0,0,1-2.38-6.35q0-8.44,9-8.45H354.21a8.56,8.56,0,0,1,7.93,4.76L406.53,391q2.64,8.46-5.29,11.1Zm-58.13-158q-5.82,0-8.45-5.81L279.17,76.52q-2.66-8.44,5.29-11.1a6,6,0,0,1,2.64-.53q6.34,0,8.45,5.82l53.38,162.23a9.21,9.21,0,0,1-.53,6.87,8.06,8.06,0,0,1-5.29,4.23Z"/></g></g></svg>