<svg xmlns="http://www.w3.org/2000/svg" xmlns:xlink="http://www.w3.org/1999/xlink" viewBox="0 0 980.98 497.61"><defs><style>.cls-1{fill:url(#Flame);}.cls-2{fill:url(#Flame-2);}.cls-3{fill:#fff;}</style><linearGradient id="Flame" y1="248.8" x2="497.61" y2="248.8" gradientUnits="userSpaceOnUse"><stop offset="0" stop-color="#e82629"/><stop offset="1" stop-color="#f59222"/></linearGradient><linearGradient id="Flame-2" x1="91.04" y1="219.73" x2="407.19" y2="219.73" xlink:href="#Flame"/></defs><title>Asset 5</title><g id="Layer_2" data-name="Layer 2"><g id="Layer_2-2" data-name="Layer 2"><path class="cls-1" d="M248.8,20a228.88,228.88,0,0,1,89.06,439.64A228.87,228.87,0,0,1,159.75,38,227.47,227.47,0,0,1,248.8,20m0-20C111.39,0,0,111.39,0,248.8S111.39,497.61,248.8,497.61,497.61,386.22,497.61,248.8,386.22,0,248.8,0Z"/><path class="cls-2" d="M99.5,402.58Q88.93,399.4,91.57,391l130-349.31q2.64-5.8,8.46-5.81h7.39c3.88,0,6.69,1.94,8.46,5.81l62.89,191.83a9.26,9.26,0,0,1-.53,6.87,8.11,8.11,0,0,1-5.29,4.23,2.11,2.11,0,0,0-1.32.26,2.07,2.07,0,0,1-1.32.27q-5.82,0-8.46-6.34L233.2,60.14,108,397.29A8.83,8.83,0,0,1,99.5,402.58Zm49.67,1.05q-5.82-1.58-7.92-5a9.54,9.54,0,0,1-1.06-7.66q2.64-6.87,9-6.87a3.85,3.85,0,0,1,1.59.26,3.4,3.4,0,0,0,1.58.27,9.9,9.9,0,0,1,5.29,5,10,10,0,0,1,.53,7.13v.53Q155.51,403.64,149.17,403.63Zm9.51-29.06q-10.58-3.18-7.92-11.63l73.45-216.66c2.12-3.88,4.93-5.82,8.46-5.82a3.59,3.59,0,0,1,1.58.27,2.3,2.3,0,0,0,1.06.26,8,8,0,0,1,5.28,4.49,8.7,8.7,0,0,1,.53,6.61l-74,216.66C165.37,372.64,162.56,374.57,158.68,374.57ZM342.06,374q-6.35,0-7.93-5.81l-13.21-39.64H215.76a7.79,7.79,0,0,1-6.08-2.64,9.17,9.17,0,0,1-2.38-6.34c0-5.63,2.82-8.46,8.46-8.46h111.5q5.81,0,8.46,5.82l14.79,46a8.31,8.31,0,0,1-5.81,10.57Zm56.54,28.54a8.82,8.82,0,0,1-8.45-5.29l-42.28-115.2H230.55a8.41,8.41,0,0,1-6.6-2.64,9.14,9.14,0,0,1-2.38-6.35q0-8.44,9-8.45H354.21a8.56,8.56,0,0,1,7.93,4.76L406.53,391q2.64,8.46-5.29,11.1Zm-58.13-158q-5.82,0-8.45-5.81L279.17,76.52q-2.66-8.44,5.29-11.1a6,6,0,0,1,2.64-.53q6.34,0,8.45,5.82l53.38,162.23a9.21,9.21,0,0,1-.53,6.87,8.06,8.06,0,0,1-5.29,4.23Z"/><path class="cls-3" d="M638.43,403c-86.88,0-109.84-59.21-109.84-90.51a7.61,7.61,0,1,1,15.22,0c0,26,19.78,75.29,94.62,75.3h0c29.86,0,53.13-8.1,69.17-24.06,22.22-21.89,20.81-51.62,20.79-51.91a7.69,7.69,0,0,1,.05-1.59,64.14,64.14,0,0,0-16.39-47.2c-15.28-16.31-39.78-24.62-72.77-24.62-28.77,0-50.34-6.86-64.11-20.38-15.76-15.4-16.37-34.89-16.34-38.63a63.81,63.81,0,0,1,11.33-34.55c9.32-13.33,28.72-29.23,68.27-29.23h0a7.61,7.61,0,1,1,0,15.21h0c-26.49,0-45.26,7.65-55.79,22.73a48.49,48.49,0,0,0-8.59,25.88c0,.76,0,16.2,11.77,27.72,10.83,10.64,28.82,16,53.46,16,37.36,0,65.6,9.93,83.94,29.51,19.21,21,21.76,47.18,20.4,58.84.65,13-3.77,41.77-25.31,63-19,18.88-45.85,28.46-79.88,28.46ZM699,311.73V309.3c0-.22,0-.45,0-.68s1.13-15.83-9.4-26.81c-9.7-10.27-26.61-15.45-50.32-15.45-37.24,0-66.11-9.71-85.81-28.85-24-24.54-24.21-53.09-24-58.44h0c0-3.82.8-38,28.41-63.8,19.5-18.51,46.63-27.92,80.58-27.92h0c33.86,0,60.73,9.44,79.85,28,27,27.36,26.12,62.75,25.05,66.83A7.61,7.61,0,0,1,728.49,179c.1-1.74,1.09-30.51-20.92-52.85-16.06-15.63-39.36-23.61-69.12-23.61h0c-29.93,0-53.53,8-70.15,23.78-23.35,21.8-23.62,51.47-23.62,52.72a8.85,8.85,0,0,1,0,.89c0,.22-1.13,25.55,19.6,46.77,16.63,16.15,41.93,24.41,75.07,24.41,28.06,0,48.69,6.79,61.34,20.18,14.42,15,13.77,35.05,13.57,38.25v2.16a7.61,7.61,0,0,1-15.22,0Z"/><path class="cls-3" d="M779.6,395.44V95.23a7.61,7.61,0,1,1,15.21,0V395.44a7.61,7.61,0,0,1-15.22,0Zm37-158.81A7.61,7.61,0,0,1,809,229V140.33a7.61,7.61,0,1,1,15.22,0v81.09H936.37v-31.8a7.61,7.61,0,1,1,15.21,0V229a7.61,7.61,0,0,1-7.61,7.61Zm119.76,110V265.55H824.22v31.8a7.61,7.61,0,1,1-15.22,0V257.93a7.61,7.61,0,0,1,7.61-7.61H944a7.61,7.61,0,0,1,7.6,7.61v88.7a7.61,7.61,0,1,1-15.21,0Zm29.39,48.82V94.39a7.61,7.61,0,1,1,15.22,0V395.46a7.61,7.61,0,0,1-15.22,0Z"/></g></g></svg>